# xmcd
#
# Track frame offsets: 
#        150
#        16325
#        30896
#        45756
#        59663
#        74300
#        86842
#        100478
#        119909
#        136816
#        148692
#        167542
#        186001
#
# Disc length: 2817 seconds
#
# Revision: 0
# Processed by: cddbd v1.5.2PL0 Copyright (c) Steve Scherf et al.
# Submitted via: ExactAudioCopy v0.99pb4
#
DISCID=b00aff0d
DTITLE=Небо Здесь - Мёртвый сезон
DYEAR=2005
DGENRE=Rock
TTITLE0=Смерти нет
TTITLE1=Мёртвый сезон
TTITLE2=Параллельный мир
TTITLE3=Небо здесь
TTITLE4=Компрачикос
TTITLE5=Не жилец
TTITLE6=Чёрный ворон
TTITLE7=Ты не уйдёшь
TTITLE8=Потерялся в тебе
TTITLE9=Мир в огне
TTITLE10=С востока на запад
TTITLE11=Смерти нет (переработанная версия) (bonus)
TTITLE12=Небо здесь (переработанная версия) (bonus)
EXTD=
EXTT0=
EXTT1=
EXTT2=
EXTT3=
EXTT4=
EXTT5=
EXTT6=
EXTT7=
EXTT8=
EXTT9=
EXTT10=
EXTT11=
EXTT12=
PLAYORDER=
